<svg width="97" height="40" viewBox="0 0 97 40" fill="none" xmlns="http://www.w3.org/2000/svg">
<path d="M20 21.6667C22.7614 21.6667 25 19.4281 25 16.6667C25 13.9052 22.7614 11.6667 20 11.6667C17.2386 11.6667 15 13.9052 15 16.6667C15 19.4281 17.2386 21.6667 20 21.6667Z" stroke="#797DD5" stroke-width="3.33333" stroke-linecap="round"/>
<path d="M20 35C28.2843 35 35 28.2843 35 20C35 11.7157 28.2843 5 20 5C11.7157 5 5 11.7157 5 20C5 28.2843 11.7157 35 20 35Z" stroke="#797DD5" stroke-width="3.33333"/>
<path d="M29.6334 31.3767C29.7365 31.3224 29.8162 31.2322 29.8573 31.1232C29.8985 31.0142 29.8983 30.8939 29.8567 30.785C29.2134 29.175 27.9767 27.755 26.3017 26.7217C24.4951 25.605 22.2784 25 20.0001 25C17.7217 25 15.5051 25.605 13.6984 26.7217C12.0234 27.755 10.7867 29.1733 10.1434 30.785C10.1017 30.8937 10.1013 31.0138 10.1421 31.1228C10.1829 31.2318 10.2622 31.3221 10.3651 31.3767C13.3175 32.9976 16.6311 33.8474 19.9992 33.8474C23.3673 33.8474 26.681 32.9976 29.6334 31.3767Z" fill="#797DD5"/>
<path d="M51.2614 25.5H49.3977L53.5852 13.8636H55.6136L59.8011 25.5H57.9375L54.6477 15.9773H54.5568L51.2614 25.5ZM51.5739 20.9432H57.6193V22.4205H51.5739V20.9432ZM64.1516 25.6705C63.447 25.6705 62.8183 25.4905 62.2652 25.1307C61.716 24.767 61.2842 24.25 60.9698 23.5795C60.6592 22.9053 60.5039 22.0966 60.5039 21.1534C60.5039 20.2102 60.6611 19.4034 60.9755 18.733C61.2936 18.0625 61.7292 17.5492 62.2823 17.1932C62.8353 16.8371 63.4622 16.6591 64.163 16.6591C64.7046 16.6591 65.1402 16.75 65.4698 16.9318C65.8031 17.1098 66.0607 17.3182 66.2425 17.5568C66.4281 17.7955 66.572 18.0057 66.6743 18.1875H66.7766V13.8636H68.4755V25.5H66.8164V24.142H66.6743C66.572 24.3277 66.4243 24.5398 66.2311 24.7784C66.0417 25.017 65.7804 25.2254 65.447 25.4034C65.1137 25.5814 64.6819 25.6705 64.1516 25.6705ZM64.5266 24.2216C65.0152 24.2216 65.4281 24.0928 65.7652 23.8352C66.1061 23.5739 66.3637 23.2121 66.538 22.75C66.716 22.2879 66.805 21.75 66.805 21.1364C66.805 20.5303 66.7179 20 66.5436 19.5455C66.3694 19.0909 66.1137 18.7367 65.7766 18.483C65.4395 18.2292 65.0228 18.1023 64.5266 18.1023C64.0152 18.1023 63.5891 18.2348 63.2482 18.5C62.9073 18.7652 62.6497 19.1269 62.4755 19.5852C62.305 20.0436 62.2198 20.5606 62.2198 21.1364C62.2198 21.7197 62.3069 22.2443 62.4811 22.7102C62.6554 23.1761 62.913 23.5455 63.2539 23.8182C63.5986 24.0871 64.0228 24.2216 64.5266 24.2216ZM70.5802 25.5V16.7727H72.2109V18.1932H72.3188C72.5006 17.7121 72.798 17.3371 73.2109 17.0682C73.6237 16.7955 74.118 16.6591 74.6938 16.6591C75.2771 16.6591 75.7658 16.7955 76.1597 17.0682C76.5574 17.3409 76.851 17.7159 77.0404 18.1932H77.1313C77.3396 17.7273 77.6711 17.3561 78.1256 17.0795C78.5802 16.7992 79.1218 16.6591 79.7506 16.6591C80.5423 16.6591 81.1881 16.9072 81.6881 17.4034C82.1919 17.8996 82.4438 18.6477 82.4438 19.6477V25.5H80.7449V19.8068C80.7449 19.2159 80.584 18.7879 80.262 18.5227C79.94 18.2576 79.5555 18.125 79.1086 18.125C78.5555 18.125 78.1256 18.2955 77.8188 18.6364C77.512 18.9735 77.3586 19.4072 77.3586 19.9375V25.5H75.6654V19.6989C75.6654 19.2254 75.5177 18.8447 75.2222 18.5568C74.9268 18.2689 74.5423 18.125 74.0688 18.125C73.7468 18.125 73.4495 18.2102 73.1768 18.3807C72.9078 18.5473 72.69 18.7803 72.5234 19.0795C72.3605 19.3788 72.279 19.7254 72.279 20.1193V25.5H70.5802ZM84.4008 25.5V16.7727H86.0997V25.5H84.4008ZM85.2588 15.4261C84.9633 15.4261 84.7095 15.3277 84.4974 15.1307C84.2891 14.9299 84.1849 14.6913 84.1849 14.4148C84.1849 14.1345 84.2891 13.8958 84.4974 13.6989C84.7095 13.4981 84.9633 13.3977 85.2588 13.3977C85.5542 13.3977 85.8061 13.4981 86.0144 13.6989C86.2266 13.8958 86.3326 14.1345 86.3326 14.4148C86.3326 14.6913 86.2266 14.9299 86.0144 15.1307C85.8061 15.3277 85.5542 15.4261 85.2588 15.4261ZM89.764 20.3182V25.5H88.0652V16.7727H89.6959V18.1932H89.8038C90.0046 17.7311 90.319 17.3598 90.747 17.0795C91.1788 16.7992 91.7224 16.6591 92.3777 16.6591C92.9724 16.6591 93.4932 16.7841 93.9402 17.0341C94.3871 17.2803 94.7337 17.6477 94.9799 18.1364C95.2262 18.625 95.3493 19.2292 95.3493 19.9489V25.5H93.6504V20.1534C93.6504 19.5208 93.4856 19.0265 93.1561 18.6705C92.8265 18.3106 92.3739 18.1307 91.7981 18.1307C91.4042 18.1307 91.0538 18.2159 90.747 18.3864C90.444 18.5568 90.2034 18.8068 90.0254 19.1364C89.8512 19.4621 89.764 19.8561 89.764 20.3182Z" fill="#797DD5"/>
</svg>
